<?xml version="1.0" encoding="UTF-8"?>
<svg width="108px" height="52px" viewBox="0 0 108 52" version="1.1" xmlns="http://www.w3.org/2000/svg" xmlns:xlink="http://www.w3.org/1999/xlink">
    <title>logo_davinci_motel</title>
    <defs>
        <polygon id="path-1" points="0 -5.76979672e-16 51 -5.76979672e-16 51 47 0 47"></polygon>
        <polygon id="path-3" points="0 0 46 0 46 58 0 58"></polygon>
    </defs>
    <g id="logo_davinci_motel" stroke="none" stroke-width="1" fill="none" fill-rule="evenodd">
        <g id="Fill-1-Clipped" transform="translate(0.000000, 3.000000)">
            <mask id="mask-2" fill="white">
                <use xlink:href="#path-1"></use>
            </mask>
            <g id="path-9"></g>
            <g id="Group-32" mask="url(#mask-2)">
                <g transform="translate(1.000000, 0.000000)">
                    <g id="Group-3" stroke-width="1" fill="none">
                        <mask id="mask-4" fill="white">
                            <use xlink:href="#path-3"></use>
                        </mask>
                        <g id="Clip-2"></g>
                        <path d="M15.0040936,22.6036946 C15.0040936,22.8404844 14.8104798,23.0323163 14.5718941,23.0323163 L13.2722254,23.0323163 C13.0334592,23.0323163 12.8398454,22.8404844 12.8398454,22.6036946 L12.8398454,17.7593562 C12.8398454,17.5225665 13.0334592,17.3305554 13.2722254,17.3305554 L14.5718941,17.3305554 C14.8104798,17.3305554 15.0040936,17.5225665 15.0040936,17.7593562 L15.0040936,22.6036946 Z M15.144608,15.90516 L12.6993309,15.90516 C11.9861025,15.90516 11.4025519,16.4838798 11.4025519,17.1912041 L11.4025519,23.1716676 C11.4025519,23.8789919 11.9861025,24.4578909 12.6993309,24.4578909 L15.144608,24.4578909 C15.8578365,24.4578909 16.441387,23.8789919 16.441387,23.1716676 L16.441387,17.1912041 C16.441387,16.4838798 15.8578365,15.90516 15.144608,15.90516 L15.144608,15.90516 Z M45.3900804,23.3092278 C45.3900804,23.3789034 45.3328271,23.4355037 45.2627505,23.4355037 L37.0493356,23.4355037 C36.9790783,23.4355037 36.9220056,23.3789034 36.9220056,23.3092278 L36.9220056,13.2345585 C36.9220056,13.165062 36.9790783,13.1084617 37.0493356,13.1084617 L45.2627505,13.1084617 C45.3328271,13.1084617 45.3900804,13.165062 45.3900804,13.2345585 L45.3900804,23.3092278 Z M36.3119054,25.2187705 C36.3119054,25.288267 36.2548327,25.3450464 36.1847561,25.3450464 L27.9713411,25.3450464 C27.9010839,25.3450464 27.8440112,25.288267 27.8440112,25.2187705 L27.8440112,15.1441012 C27.8440112,15.0746047 27.9010839,15.0180044 27.9713411,15.0180044 L36.1847561,15.0180044 C36.2548327,15.0180044 36.3119054,15.0746047 36.3119054,15.1441012 L36.3119054,25.2187705 Z M27.233911,23.3092278 C27.233911,23.3789034 27.1768383,23.4355037 27.106581,23.4355037 L18.8933467,23.4355037 C18.8230895,23.4355037 18.7660168,23.3789034 18.7660168,23.3092278 L18.7660168,13.2345585 C18.7660168,13.165062 18.8230895,13.1084617 18.8933467,13.1084617 L27.106581,13.1084617 C27.1768383,13.1084617 27.233911,13.165062 27.233911,13.2345585 L27.233911,23.3092278 Z M24.7227112,26.7512766 L19.6780967,26.7512766 L21.7634183,24.8318826 L22.623302,24.0403743 L26.773717,24.0403743 L24.7227112,26.7512766 Z M35.5363666,27.3563263 C35.6064432,27.3563263 35.6635159,27.4129266 35.6635159,27.4826022 L35.6635159,31.7697146 C35.6635159,31.8392111 35.6064432,31.8958114 35.5363666,31.8958114 L10.4637418,31.8958114 C10.3934845,31.8958114 10.3364118,31.8392111 10.3364118,31.7697146 L10.3364118,27.4826022 C10.3364118,27.4129266 10.3934845,27.3563263 10.4637418,27.3563263 L35.5363666,27.3563263 Z M21.1347153,32.500682 L21.7634183,32.500682 L21.7634183,34.5234253 L20.3963821,34.2633506 C20.2842234,34.2427524 20.1948215,34.1712856 20.1512945,34.0668617 C20.1077676,33.9624378 20.1198684,33.8492372 20.1773024,33.7659489 L21.1347153,32.500682 Z M35.3349866,37.7222362 L35.9678436,34.3444896 L40.7440719,41.2429164 L33.7884242,45.979786 L34.4743805,42.3176051 L24.2365094,40.5033515 L21.7634183,40.0652367 L10.3364118,38.0401649 C9.85309978,37.9566975 9.47526391,37.612618 9.35010126,37.1422625 C9.22511922,36.6719071 9.38279165,36.187939 9.76171118,35.878966 L13.4318846,32.500682 L20.372361,32.500682 L19.6824313,33.4127345 C19.5007378,33.674063 19.4653382,34.0050671 19.5877917,34.298278 C19.7100646,34.5914889 19.9712265,34.8008741 20.2836816,34.8578326 L21.7634183,35.139401 L24.2365094,35.6101147 L35.3349866,37.7222362 Z M21.1910656,3.2340428 C20.4863259,3.2340428 20.1173399,3.77479034 20.1173399,4.24048877 C20.1173399,4.60659939 20.335336,4.91449771 20.7799975,4.91449771 C20.9896856,4.91449771 21.4930453,4.93115538 21.4930453,5.36371758 C21.4930453,5.68809446 21.2497638,5.99599277 20.5116113,5.99599277 C19.7985634,5.99599277 18.9511419,5.5383545 18.9511419,4.44020176 C18.9511419,3.0341507 20.2096315,2.1690263 21.3420555,2.1690263 C22.2815881,2.1690263 23.0786195,2.75132846 23.0786195,4.12406416 L23.1458064,7.0443516 C23.9930473,5.53011522 25.0080748,4.03253651 24.9995862,2.93438377 C24.9912781,2.44343015 25.2596644,2.17744469 25.5282313,2.17744469 C25.8049256,2.17744469 26.0901086,2.46008782 26.0901086,3.05080838 C26.0901086,4.37357106 24.4460169,6.66158331 23.5651825,8.38359284 C23.3470058,8.79125809 23.045026,8.98255268 22.7262496,8.98255268 C22.264972,8.98255268 22.0467952,8.69973043 22.0383066,8.12584666 L21.9628116,4.38198945 C21.9628116,3.60821359 21.593645,3.2340428 21.1910656,3.2340428 L21.1910656,3.2340428 Z M19.8872429,6.57829493 C19.8034399,6.79448648 19.7194563,6.99419946 19.6273453,7.21057012 C19.1573984,8.30872286 18.5953404,8.82457344 17.6390111,8.82457344 C17.1860415,8.82457344 16.7917702,8.63309973 16.5903901,8.33379893 C16.2549976,8.6665942 15.8690343,8.82457344 15.5083563,8.82457344 C14.7198136,8.82457344 14.4008566,8.25033144 14.4008566,7.51005004 C14.4008566,6.13749345 15.4998677,4.19893414 16.9091666,4.19893414 C17.2447397,4.19893414 17.5635162,4.3486741 17.6977093,4.58152332 C17.8571878,4.35691338 18.0585679,4.25714645 18.2429705,4.25714645 C18.5030488,4.25714645 18.7295336,4.46527783 18.7295336,4.77299703 C18.7295336,4.87276396 18.7129175,4.97253089 18.6625273,5.08913462 L18.5870324,5.27201081 L18.1172661,6.42013658 C17.8822926,6.96948162 17.7732042,7.26036403 17.7313028,7.36031008 C17.6139063,7.68486607 17.7480995,7.95944903 18.0332825,7.95944903 C18.3101574,7.95944903 18.6540386,7.69310535 18.9058088,7.09414551 C18.956199,6.98596018 19.0400019,6.77800792 19.2160966,6.35368499 C19.3166963,6.12065666 19.4678668,6.0375474 19.6858629,6.10399898 C19.9040396,6.17062968 19.9795345,6.3452666 19.8872429,6.57829493 L19.8872429,6.57829493 Z M11.0140601,8.98255268 C10.4771069,8.98255268 10.0660388,8.76618202 9.72215761,8.50019656 C9.3361943,8.83281272 8.87491666,8.98255268 8.27077661,8.98255268 C7.24744103,8.98255268 6.75256996,8.40866891 6.75256996,7.81794835 C6.75256996,7.21057012 7.28103447,6.603371 8.27926528,6.603371 C8.74072352,6.603371 9.10970951,6.79448648 9.43697461,7.03575409 C9.4788761,6.93598716 9.52926626,6.82798094 9.57947581,6.70313794 L10.686795,3.99940027 C10.8547622,3.59979519 11.1146598,3.43357667 11.3579413,3.43357667 C11.6180195,3.43357667 11.8446849,3.64152894 11.8446849,3.94942725 C11.8446849,4.04919418 11.8277076,4.14914023 11.7774981,4.26556484 L11.7020031,4.44844104 L10.6197887,7.08572711 C10.519189,7.32699473 10.4184087,7.54336539 10.317809,7.7264207 C10.5358051,7.88457905 10.7707786,7.98434599 11.0223681,7.98434599 C12.5660408,7.98434599 13.3628916,6.49500656 13.3628916,5.18890155 C13.3628916,3.99098188 12.7002339,2.85951379 11.3496332,2.85951379 C10.401612,2.85951379 9.45377133,3.416919 9.45377133,4.17403719 C9.45377133,4.55662637 9.64666268,4.67305098 9.73895433,4.81455166 C9.7640591,4.8562854 9.77254777,4.89766092 9.77254777,4.95605233 C9.77254777,5.13910764 9.58796447,5.33864151 9.31957819,5.33864151 C8.79942173,5.33864151 8.39684231,4.723024 8.39684231,4.18227647 C8.39684231,2.80130149 9.88145553,1.91110101 11.374738,1.91110101 C13.4383865,1.91110101 14.445106,3.50002826 14.445106,5.1640046 C14.445106,6.9777209 13.2622919,8.98255268 11.0140601,8.98255268 L11.0140601,8.98255268 Z M27.1138054,4.25714645 C27.373703,4.25714645 27.6003684,4.46527783 27.6003684,4.77299703 C27.6003684,4.87276396 27.5835717,4.97253089 27.5331816,5.08913462 L27.4576866,5.27201081 L26.9879203,6.42013658 C26.7529469,6.96948162 26.6440391,7.26036403 26.601957,7.36031008 C26.4845606,7.68486607 26.6189344,7.95944903 26.9041174,7.95944903 C27.1650986,7.95944903 27.4849587,7.71871876 27.7316718,7.18925546 L28.6990183,4.82279094 C28.8668049,4.42354408 29.1268832,4.25714645 29.3701647,4.25714645 C29.5798527,4.25714645 29.764436,4.39040785 29.8316229,4.598181 C30.1587074,4.32377715 30.527874,4.19893414 30.8549585,4.19893414 C31.383423,4.19893414 31.8112878,4.51507174 31.8112878,5.06423766 C31.8112878,5.30550528 31.5932917,5.86291049 31.3666263,6.42013658 C31.1318334,6.96948162 31.0227451,7.26036403 30.9808436,7.36031008 C30.8634472,7.68486607 30.9976403,7.95944903 31.2828233,7.95944903 C31.5596982,7.95944903 31.9035795,7.69310535 32.155169,7.09414551 C32.2017664,6.99419946 32.2779837,6.80630805 32.4284318,6.44360061 C32.7804404,5.29816157 33.7577205,4.19893414 34.8473399,4.19893414 C35.6526793,4.19893414 36.1141376,4.68146937 36.1141376,5.27201081 C36.1141376,5.85449209 35.6526793,6.31213036 35.1242148,6.31213036 C34.6712453,6.31213036 34.4698652,6.0375474 34.4698652,5.76296444 C34.4698652,5.49679987 34.6629372,5.23887458 35.0153071,5.23887458 C35.0991101,5.23887458 35.1914017,5.26377153 35.2668966,5.30550528 C35.3506996,5.36371758 35.4178865,5.33864151 35.375985,5.24711386 C35.3087981,5.0973739 35.1662969,5.01426464 34.9564283,5.01426464 C34.2265837,5.01426464 33.5303326,6.20394503 33.5303326,7.08572711 C33.5303326,7.60157769 33.7736142,8.01748222 34.3860623,8.01748222 C35.0931499,8.01748222 35.6320898,7.69059774 35.9828342,7.0540238 C36.0492986,6.88135715 36.1334628,6.67465869 36.2391196,6.42013658 L36.8934692,4.82279094 C37.0612558,4.42354408 37.321334,4.25714645 37.5646155,4.25714645 C37.8246938,4.25714645 38.0511786,4.46527783 38.0511786,4.77299703 C38.0511786,4.87276396 38.0343818,4.97253089 37.9841723,5.08913462 L37.9086774,5.27201081 L37.4387305,6.42013658 C37.2039376,6.96948162 37.0948492,7.26036403 37.0529477,7.36031008 C36.9353707,7.68486607 37.0697445,7.95944903 37.3549275,7.95944903 C37.6316218,7.95944903 37.9756836,7.69310535 38.2272732,7.09414551 C38.2776633,6.98596018 38.3614663,6.77800792 38.5377416,6.35368499 C38.6385219,6.12065666 38.7895117,6.0375474 39.0075079,6.10399898 C39.2256846,6.17062968 39.3011795,6.3452666 39.2088879,6.57829493 C39.1249043,6.79448648 39.0411013,6.99419946 38.9488097,7.21057012 C38.4790434,8.30872286 37.9169854,8.82457344 36.9606561,8.82457344 C36.4925153,8.82457344 36.0924644,8.62486045 35.8972251,8.30549879 C35.4323353,8.68772974 34.8484236,8.88278574 34.1595775,8.88278574 C33.3159487,8.88278574 32.7156015,8.54210942 32.4472152,8.00440684 C32.0558336,8.55822975 31.5736052,8.82457344 30.8885519,8.82457344 C30.2257137,8.82457344 29.6972492,8.42532658 29.6972492,7.85108459 C29.6972492,7.59333841 29.8146456,7.26896154 30.1670155,6.42013658 C30.3432907,5.99599277 30.5025886,5.6049852 30.5025886,5.46348452 C30.5025886,5.29708688 30.4270937,5.18890155 30.2174056,5.18890155 C29.9992289,5.18890155 29.7895408,5.30550528 29.5798527,5.6049852 L28.7662052,7.59333841 L28.4640449,8.31696214 C28.313055,8.68307276 28.0446687,8.82457344 27.8098759,8.82457344 C27.6384771,8.82457344 27.4849587,8.75274841 27.3957374,8.62324842 C27.1412581,8.75758451 26.8508374,8.82457344 26.509846,8.82457344 C25.8471883,8.82457344 25.3185432,8.42532658 25.3185432,7.85108459 C25.3185432,7.59333841 25.4359396,7.26896154 25.7883095,6.42013658 L26.4426591,4.82279094 C26.6104457,4.42354408 26.8705239,4.25714645 27.1138054,4.25714645 L27.1138054,4.25714645 Z M27.6758634,2.59334922 C28.0282333,2.59334922 28.3134163,2.87617146 28.3134163,3.2340428 C28.3134163,3.58331663 28.0282333,3.86613888 27.6758634,3.86613888 C27.3234935,3.86613888 27.0383105,3.58331663 27.0383105,3.2340428 C27.0383105,2.87617146 27.3234935,2.59334922 27.6758634,2.59334922 L27.6758634,2.59334922 Z M38.1266735,2.59334922 C38.4790434,2.59334922 38.7642264,2.87617146 38.7642264,3.2340428 C38.7642264,3.58331663 38.4790434,3.86613888 38.1266735,3.86613888 C37.7743036,3.86613888 37.4891206,3.58331663 37.4891206,3.2340428 C37.4891206,2.87617146 37.7743036,2.59334922 38.1266735,2.59334922 L38.1266735,2.59334922 Z M18.1560972,25.2187705 C18.1560972,25.288267 18.0988439,25.3450464 18.0287672,25.3450464 L9.81535231,25.3450464 C9.74509507,25.3450464 9.68802235,25.288267 9.68802235,25.2187705 L9.68802235,15.1441012 C9.68802235,15.0746047 9.74509507,15.0180044 9.81535231,15.0180044 L18.0287672,15.0180044 C18.0988439,15.0180044 18.1560972,15.0746047 18.1560972,15.1441012 L18.1560972,25.2187705 Z M9.07792217,23.3092278 C9.07792217,23.3789034 9.02084945,23.4355037 8.95077281,23.4355037 L0.737177287,23.4355037 C0.667100654,23.4355037 0.610027932,23.3789034 0.610027932,23.3092278 L0.610027932,13.2345585 C0.610027932,13.165062 0.667100654,13.1084617 0.737177287,13.1084617 L8.95077281,13.1084617 C9.02084945,13.1084617 9.07792217,13.165062 9.07792217,13.2345585 L9.07792217,23.3092278 Z M45.2627505,12.503412 L37.0493356,12.503412 C36.6427827,12.503412 36.3119054,12.8315503 36.3119054,13.2345585 L36.3119054,14.4256718 C36.2703651,14.4185073 36.228283,14.4129547 36.1847561,14.4129547 L27.9713411,14.4129547 C27.9276335,14.4129547 27.8855514,14.4185073 27.8440112,14.4256718 L27.8440112,13.2345585 C27.8440112,12.8315503 27.5131339,12.503412 27.106581,12.503412 L24.2365094,12.503412 L24.2365094,10.8937074 L41.2550172,10.8937074 C41.4489922,10.8937074 41.6193074,10.7654612 41.6715036,10.5800774 L44.4926299,0.543917864 C44.5693891,0.270588704 44.3622296,-5.37344351e-05 44.0761436,-5.37344351e-05 L1.9237842,-5.37344351e-05 C1.63787876,-5.37344351e-05 1.43071923,0.270588704 1.50747843,0.543917864 L4.32860476,10.5800774 C4.3806204,10.7654612 4.55093552,10.8937074 4.74491053,10.8937074 L21.7634183,10.8937074 L21.7634183,12.503412 L18.8933467,12.503412 C18.4867939,12.503412 18.1560972,12.8315503 18.1560972,13.2345585 L18.1560972,14.4256718 C18.1143763,14.4185073 18.0722942,14.4129547 18.0287672,14.4129547 L9.81535231,14.4129547 C9.77164472,14.4129547 9.72956262,14.4185073 9.68802235,14.4256718 L9.68802235,13.2345585 C9.68802235,12.8315503 9.35714504,12.503412 8.95077281,12.503412 L0.737177287,12.503412 C0.330805057,12.503412 -7.22439521e-05,12.8315503 -7.22439521e-05,13.2345585 L-7.22439521e-05,23.3092278 C-7.22439521e-05,23.7124152 0.330805057,24.0403743 0.737177287,24.0403743 L8.95077281,24.0403743 C8.9942998,24.0403743 9.0363819,24.0350009 9.07792217,24.0276572 L9.07792217,25.2187705 C9.07792217,25.6219579 9.40879947,25.949917 9.81535231,25.949917 L18.0287672,25.949917 C18.4353201,25.949917 18.7660168,25.6219579 18.7660168,25.2187705 L18.7660168,24.0276572 C18.807557,24.0350009 18.8496391,24.0403743 18.8933467,24.0403743 L21.7269351,24.0403743 L18.7819104,26.7512766 L10.4637418,26.7512766 C10.0571889,26.7512766 9.72631164,27.0794149 9.72631164,27.4826022 L9.72631164,31.7697146 C9.72631164,32.1727229 10.0571889,32.500682 10.4637418,32.500682 L12.5358789,32.500682 L9.36689798,35.4177454 C8.80700735,35.8787868 8.57456243,36.5977536 8.76022939,37.2964804 C8.94698001,37.9982521 9.51066344,38.5117742 10.2303938,38.6359007 L21.7634183,40.6796004 L21.7634183,58 L24.2365094,58 L24.2365094,41.1178943 L33.7624163,42.805872 L32.91951,47.3052354 L41.5923965,41.3991045 L35.6367857,32.7981917 L34.8473399,37.0132999 L24.2365094,34.9941389 L24.2365094,32.500682 L35.5363666,32.500682 C35.9427388,32.500682 36.2734355,32.1727229 36.2734355,31.7697146 L36.2734355,27.4826022 C36.2734355,27.0794149 35.9427388,26.7512766 35.5363666,26.7512766 L25.4848849,26.7512766 L27.233911,24.4398003 L27.233911,25.2187705 C27.233911,25.6219579 27.5647883,25.949917 27.9713411,25.949917 L36.1847561,25.949917 C36.5911283,25.949917 36.9220056,25.6219579 36.9220056,25.2187705 L36.9220056,24.0276572 C36.9635459,24.0350009 37.005628,24.0403743 37.0493356,24.0403743 L45.2627505,24.0403743 C45.6693033,24.0403743 46,23.7124152 46,23.3092278 L46,13.2345585 C46,12.8315503 45.6693033,12.503412 45.2627505,12.503412 L45.2627505,12.503412 Z M43.3448541,21.1227736 L40.3613595,21.1227736 L40.3613595,14.0384257 C40.3613595,14.0149616 40.3418537,13.9956172 40.3180132,13.9956172 L38.9672319,13.9956172 C38.9433914,13.9956172 38.9238855,14.0149616 38.9238855,14.0384257 L38.9238855,22.5053606 C38.9238855,22.5290038 38.9433914,22.5483482 38.9672319,22.5483482 L43.3448541,22.5483482 C43.368514,22.5483482 43.3880199,22.5290038 43.3880199,22.5053606 L43.3880199,21.1657612 C43.3880199,21.142118 43.368514,21.1227736 43.3448541,21.1227736 L43.3448541,21.1227736 Z M7.99480472,13.9956172 L6.63968879,13.9956172 C6.63734086,13.9956172 6.63589598,13.9975875 6.63372866,13.9979457 C6.62704609,13.9986622 6.62235024,14.0013489 6.61657072,14.0051103 C6.61386157,14.0070806 6.61133303,14.0083344 6.60916572,14.0110211 C6.6069984,14.0133496 6.60356681,14.013887 6.60194132,14.0167528 L4.84460719,17.1924579 L3.08745366,14.0167528 C3.08528634,14.0129914 3.08113231,14.0120958 3.07806195,14.0094091 C3.07697829,14.0079762 3.07553341,14.0074388 3.07426914,14.006185 C3.06794779,14.0017071 3.06216828,13.9988413 3.05458266,13.9981249 C3.05223473,13.9977666 3.05078985,13.9956172 3.04844193,13.9956172 L1.69314538,13.9956172 C1.67056915,13.9956172 1.65214694,14.013887 1.65214694,14.0362763 L1.65214694,22.50751 C1.65214694,22.5300785 1.67056915,22.5483482 1.69314538,22.5483482 L3.04844193,22.5483482 C3.07101816,22.5483482 3.08944037,22.5300785 3.08944037,22.50751 L3.08944037,16.983431 L4.02481894,18.6740954 L4.84460719,20.1555538 L5.66439543,18.6740954 L6.59850973,16.9859386 L6.59850973,22.50751 C6.59850973,22.5300785 6.61711255,22.5483482 6.63968879,22.5483482 L7.99480472,22.5483482 C8.01738095,22.5483482 8.03598377,22.5300785 8.03598377,22.50751 L8.03598377,14.0362763 C8.03598377,14.013887 8.01738095,13.9956172 7.99480472,13.9956172 L7.99480472,13.9956172 Z M25.4762156,13.9956172 L20.5237121,13.9956172 C20.5000522,13.9956172 20.4805464,14.0149616 20.4805464,14.0384257 L20.4805464,15.3782043 C20.4805464,15.4018474 20.5000522,15.4210127 20.5237121,15.4210127 L22.2812269,15.4210127 L22.2812269,22.5053606 C22.2812269,22.5290038 22.3007327,22.5483482 22.3245732,22.5483482 L23.6755351,22.5483482 C23.699195,22.5483482 23.7187009,22.5290038 23.7187009,22.5053606 L23.7187009,15.4210127 L25.4762156,15.4210127 C25.5000561,15.4210127 25.5193814,15.4018474 25.5193814,15.3782043 L25.5193814,14.0384257 C25.5193814,14.0149616 25.5000561,13.9956172 25.4762156,13.9956172 L25.4762156,13.9956172 Z M7.71720733,7.75973605 C7.71720733,7.91771529 7.91009868,8.08411292 8.30437005,8.08411292 C8.581245,8.08411292 8.78262502,8.04255829 8.96720831,7.84284531 C8.71543814,7.63471393 8.46384858,7.48497397 8.16186886,7.48497397 C7.86819719,7.48497397 7.71720733,7.61823537 7.71720733,7.75973605 L7.71720733,7.75973605 Z M17.0433597,5.13068925 C16.3388006,5.13068925 15.6089561,6.61161028 15.6089561,7.37696775 C15.6089561,7.65155072 15.7012477,7.82618763 15.9109358,7.82618763 C16.1374206,7.82618763 16.4394003,7.60157769 16.6743737,7.01927553 L16.9176552,6.42013658 L17.3370314,5.39685382 C17.3119266,5.24711386 17.2113269,5.13068925 17.0433597,5.13068925 L17.0433597,5.13068925 Z M34.2711944,15.90516 L29.8849028,15.90516 C29.8610623,15.90516 29.8415564,15.9243252 29.8415564,15.9479684 L29.8415564,24.4149033 C29.8415564,24.4385465 29.8610623,24.4578909 29.8849028,24.4578909 L34.2711944,24.4578909 C34.2948543,24.4578909 34.3143601,24.4385465 34.3143601,24.4149033 L34.3143601,23.0753039 C34.3143601,23.0516607 34.2948543,23.0323163 34.2711944,23.0323163 L31.2790305,23.0323163 L31.2790305,20.8942231 L33.7606102,20.8942231 C33.7844507,20.8942231 33.803776,20.8748788 33.803776,20.8512356 L33.803776,19.5116361 C33.803776,19.487993 33.7844507,19.4688277 33.7606102,19.4688277 L31.2790305,19.4688277 L31.2790305,17.3305554 L34.2711944,17.3305554 C34.2948543,17.3305554 34.3143601,17.311211 34.3143601,17.287747 L34.3143601,15.9479684 C34.3143601,15.9243252 34.2948543,15.90516 34.2711944,15.90516 L34.2711944,15.90516 Z" id="Fill-1" fill="#000000" mask="url(#mask-4)"></path>
                    </g>
                    <path d="M14.4015429,29.0534747 C14.4015429,29.0405785 14.4112958,28.9374083 14.3755351,28.869703 C14.3560292,28.827611 14.3072645,28.7695778 14.1999823,28.7695778 C14.1772254,28.7695778 14.1152762,28.772981 14.0634412,28.8114906 C13.9689822,28.8761511 13.9821667,28.975918 13.9821667,29.069595 L13.9821667,30.2209449 C13.9821667,30.2886503 13.9787351,30.372476 14.0211785,30.4305092 C14.0697625,30.4982146 14.1737938,30.4982146 14.1934803,30.4982146 C14.2129862,30.4982146 14.2747547,30.4949905 14.3267704,30.4597049 C14.4047939,30.4047166 14.4015429,30.3144428 14.4015429,30.2306171 L14.4015429,29.0534747 Z M14.6941309,30.6757173 C14.5575898,30.8014559 14.3722841,30.8272484 14.1965507,30.8272484 C14.0276804,30.8272484 13.8553786,30.8045008 13.7186569,30.6950617 C13.6503864,30.6400735 13.6178766,30.5854435 13.6048727,30.5530237 C13.565861,30.472422 13.5559274,30.3757001 13.5559274,30.2918743 L13.5559274,29.0147859 C13.5559274,28.9664249 13.5463551,28.7373371 13.6989704,28.6019263 C13.7836765,28.5277728 13.9429744,28.4536193 14.1999823,28.4536193 C14.531582,28.4536193 14.7071348,28.5890301 14.7754053,28.7213959 C14.8113467,28.7955494 14.827421,28.8664789 14.827421,29.0244581 L14.827421,30.2918743 C14.827421,30.4371364 14.8046641,30.5693231 14.6941309,30.6757173 L14.6941309,30.6757173 Z" id="Fill-4" fill="#000000"></path>
                    <path d="M16.0693668,29.0695592 C16.0693668,29.0050779 16.0791197,28.9373725 16.0366764,28.8857875 C15.9880923,28.8245302 15.8968843,28.8374265 15.8806294,28.8374265 L15.6725669,28.8374265 L15.6725669,29.5049873 L15.8775591,29.5049873 C15.9653355,29.5049873 16.0139195,29.4953151 16.040108,29.4598503 C16.0693668,29.4211615 16.0693668,29.347008 16.0693668,29.3018711 L16.0693668,29.0695592 Z M16.4042175,29.7177756 C16.3359469,29.8016013 16.2384176,29.8306179 16.0301744,29.8306179 L15.6725669,29.8306179 L15.6725669,30.7788516 L15.2465081,30.7788516 L15.2465081,28.5019445 L16.0984449,28.5019445 C16.1114489,28.5019445 16.1668961,28.5019445 16.2124098,28.5116167 C16.3489509,28.5406333 16.4139704,28.6276831 16.4367273,28.67282 C16.4856725,28.769542 16.4856725,28.9148041 16.4856725,29.0147501 L16.4856725,29.3145883 C16.4856725,29.5275557 16.475739,29.6307258 16.4042175,29.7177756 L16.4042175,29.7177756 Z" id="Fill-6" fill="#000000"></path>
                    <polygon id="Fill-8" fill="#000000" points="16.8493125 30.7788516 16.8493125 28.5019445 17.9613275 28.5019445 17.9613275 28.8470987 17.2721202 28.8470987 17.2721202 29.3824728 17.9223158 29.3824728 17.9223158 29.7274478 17.2721202 29.7274478 17.2721202 30.4272493 17.9940179 30.4272493 17.9940179 30.7788516"></polygon>
                    <polygon id="Fill-10" fill="#000000" points="19.0861116 30.7788516 18.6795588 29.0729624 18.7153196 30.7788516 18.3187003 30.7788516 18.3187003 28.5019445 18.8617942 28.5019445 19.2746684 30.1725481 19.2325863 28.5019445 19.6194526 28.5019445 19.6194526 30.7788516"></polygon>
                    <path d="M21.9014404,29.1019253 C21.8396718,29.2113644 21.7161347,29.4630207 21.6218563,29.7854273 C21.5828446,29.914569 21.4593074,30.3403249 21.4623778,30.7787979 L21.0560056,30.7787979 C21.0592565,30.6466112 21.0722604,30.5305448 21.130778,30.2724404 C21.2543152,29.7307973 21.4593074,29.2921452 21.5503348,29.1146424 C21.5795936,29.0566092 21.6119228,29.0050242 21.6413622,28.950215 L21.134029,28.950215 L21.134029,29.2018713 L20.8186842,29.2018713 L20.8186842,28.6342566 L21.9861464,28.6342566 L21.9861464,28.9534391 C21.9568876,29.0018001 21.9276288,29.0501611 21.9014404,29.1019253" id="Fill-12" fill="#000000"></path>
                    <path d="M22.2229802,30.7788516 L22.2229802,30.7272666 C22.2229802,30.5338226 22.245737,30.365992 22.3335134,30.1854443 C22.4180388,30.0143897 22.5320037,29.9081746 22.6685447,29.7758088 C22.7008739,29.7437473 22.7368153,29.7113275 22.7693251,29.6758628 C22.8310936,29.6146055 22.9027958,29.5501242 22.9383759,29.4693434 C22.9613134,29.4211615 22.9643837,29.3760246 22.9643837,29.3244396 L22.9643837,29.0792314 C22.9643837,29.0179742 22.9548114,28.959941 22.9091171,28.9212522 C22.8701054,28.8922356 22.8213407,28.8922356 22.8050858,28.8922356 C22.7953329,28.8922356 22.7465682,28.8922356 22.7108075,28.9083559 C22.632784,28.9468656 22.6230311,29.0244223 22.6230311,29.0985758 L22.6230311,29.3534562 L22.2684939,29.3534562 L22.2684939,29.0921277 C22.2684939,28.963165 22.2847488,28.8567709 22.3725252,28.7568248 C22.5157488,28.6020696 22.7368153,28.6051 22.7920819,28.6051 C22.8375956,28.6051 23.1856308,28.5986665 23.2961641,28.8567709 C23.3286739,28.9373725 23.3384268,29.0534389 23.3384268,29.0695592 L23.3384268,29.3534562 C23.3384268,29.4628953 23.3286739,29.5017632 23.309168,29.5565723 C23.2669053,29.685535 23.1271132,29.8209457 22.9123681,30.0306892 C22.8213407,30.120963 22.7008739,30.2273572 22.6587918,30.3564989 C22.6490389,30.3917846 22.6457879,30.3982327 22.6425369,30.4562659 L23.3611836,30.4562659 L23.3611836,30.7788516 L22.2229802,30.7788516 Z" id="Fill-14" fill="#000000"></path>
                    <polygon id="Fill-16" fill="#000000" points="25.3864706 30.7788516 25.3864706 29.7372991 24.9994236 29.7372991 24.9994236 30.7788516 24.5767965 30.7788516 24.5767965 28.5019445 24.9994236 28.5019445 24.9994236 29.3951899 25.3864706 29.3951899 25.3864706 28.5019445 25.8092783 28.5019445 25.8092783 30.7788516"></polygon>
                    <path d="M27.073692,29.0534747 C27.073692,29.0405785 27.0834449,28.9374083 27.0475035,28.869703 C27.0281783,28.827611 26.9794136,28.7695778 26.8721313,28.7695778 C26.8493745,28.7695778 26.7876059,28.772981 26.7354097,28.8114906 C26.6411313,28.8761511 26.6543158,28.975918 26.6543158,29.069595 L26.6543158,30.2209449 C26.6543158,30.2886503 26.6508842,30.372476 26.6933276,30.4305092 C26.7419116,30.4982146 26.8459429,30.4982146 26.8656294,30.4982146 C26.8851353,30.4982146 26.9469038,30.4949905 26.9989195,30.4597049 C27.076943,30.4047166 27.073692,30.3144428 27.073692,30.2306171 L27.073692,29.0534747 Z M27.36628,30.6757173 C27.2297389,30.8014559 27.0444332,30.8272484 26.8686998,30.8272484 C26.6998295,30.8272484 26.5273471,30.8045008 26.390806,30.6950617 C26.3225355,30.6400735 26.2900257,30.5854435 26.2770218,30.5530237 C26.2380101,30.472422 26.2280765,30.3757001 26.2280765,30.2918743 L26.2280765,29.0147859 C26.2280765,28.9664249 26.2185042,28.7373371 26.3713001,28.6019263 C26.4558256,28.5277728 26.6151235,28.4536193 26.8721313,28.4536193 C27.2039117,28.4536193 27.3792839,28.5890301 27.4475544,28.7213959 C27.4834958,28.7955494 27.4995701,28.8664789 27.4995701,29.0244581 L27.4995701,30.2918743 C27.4995701,30.4371364 27.4768132,30.5693231 27.36628,30.6757173 L27.36628,30.6757173 Z" id="Fill-18" fill="#000000"></path>
                    <path d="M29.0537,30.6305267 C28.8911511,30.840091 28.5788767,30.8273738 28.5234294,30.8273738 C28.3545592,30.8273738 28.1788258,30.79173 28.0552886,30.6627673 C28.0325318,30.6401989 27.9870181,30.5853897 27.9577593,30.507833 C27.9252495,30.4272314 27.915316,30.3369575 27.915316,30.2563559 L27.915316,28.5019266 L28.3381237,28.5019266 L28.3381237,30.1950986 C28.3381237,30.2563559 28.3381237,30.3176131 28.3608805,30.3726014 C28.4031432,30.4660993 28.5104255,30.4693234 28.5366139,30.4693234 C28.5561198,30.4693234 28.6113864,30.4693234 28.6601511,30.4336795 C28.7414255,30.3790495 28.7316726,30.2724762 28.7316726,30.1918746 L28.7316726,28.5019266 L29.1577313,28.5019266 L29.1577313,30.2660281 C29.1577313,30.401618 29.1447274,30.5144603 29.0537,30.6305267" id="Fill-20" fill="#000000"></path>
                    <path d="M30.4285566,29.0148217 C30.4285566,28.8727837 30.3796113,28.8276468 30.2333173,28.8276468 L30.0122508,28.8276468 L30.0122508,29.4341295 L30.2333173,29.4341295 C30.3796113,29.4341295 30.4285566,29.3825444 30.4285566,29.2179379 L30.4285566,29.0148217 Z M30.4968272,30.7789233 L30.1715488,29.7694323 L30.0122508,29.7694323 L30.0122508,30.7789233 L29.5894431,30.7789233 L29.5894431,28.5020161 L30.4350586,28.5020161 C30.7146427,28.5020161 30.8479328,28.6309788 30.8479328,28.9082485 L30.8479328,29.321108 C30.8479328,29.5469718 30.7796622,29.6501419 30.5781016,29.7113991 L30.9358898,30.7789233 L30.4968272,30.7789233 Z" id="Fill-22" fill="#000000"></path>
                    <path d="M32.4538978,30.4788702 C32.4018821,30.6626419 32.2490862,30.8272484 31.8587882,30.8272484 C31.6962393,30.8272484 31.5239375,30.8045008 31.3873964,30.6982858 C31.3126239,30.6400735 31.2833651,30.5789953 31.2671102,30.5433515 C31.2409218,30.4788702 31.2215965,30.4371364 31.2215965,30.3079947 L31.2215965,29.9757367 L31.6409727,29.9757367 L31.6409727,30.2402893 C31.6409727,30.324115 31.6344707,30.420837 31.7157452,30.472422 C31.7419336,30.4887215 31.7807647,30.5048418 31.8459649,30.5048418 C31.9207374,30.5048418 31.9628195,30.4887215 31.9920783,30.4627498 C32.0540275,30.414568 32.0540275,30.3144428 32.0540275,30.1596876 C32.0540275,30.130671 32.0605294,30.0273218 32.0083332,29.9501233 C31.976004,29.9015832 31.9272393,29.8725666 31.9108038,29.8596704 L31.5109336,29.5920729 C31.4231572,29.5340397 31.3776435,29.4983958 31.3191259,29.405077 C31.2701806,29.3244754 31.2378514,29.2372465 31.2378514,29.0438025 C31.2378514,29.0115619 31.2344198,28.8501794 31.2929374,28.730889 C31.4231572,28.4536193 31.8167061,28.4536193 31.8622198,28.4536193 C31.9304903,28.4536193 32.2978508,28.4536193 32.4183176,28.7534575 C32.4410745,28.8114906 32.4538978,28.8340591 32.4538978,28.9438565 L32.4538978,29.1695411 L32.0312706,29.1695411 L32.0312706,28.9374083 C32.0312706,28.869703 32.0052628,28.772981 31.8425333,28.772981 C31.745004,28.772981 31.6539766,28.8084457 31.6539766,28.9986656 C31.6539766,29.0083378 31.6474746,29.1437486 31.6994903,29.2179021 C31.7126748,29.2372465 31.7419336,29.2598149 31.7874473,29.2920556 L32.1970705,29.5725494 C32.2263293,29.5920729 32.3173567,29.6597783 32.3856272,29.7500521 C32.4865881,29.8822388 32.4768352,29.982364 32.4768352,30.1435673 C32.4768352,30.3176669 32.4768352,30.3918204 32.4538978,30.4788702" id="Fill-24" fill="#000000"></path>
                    <path d="M26.862848,38.8708277 L26.7440067,38.8482592 L26.8827151,38.4635206 L26.862848,38.8708277 Z M26.5717049,38.9460559 L26.9847597,39.0245082 L27.0322601,38.0477952 L26.9040271,38.0234356 L26.5717049,38.9460559 Z" id="Fill-26" fill="#000000"></path>
                    <path d="M29.7152921,39.41222 L29.5964508,39.3896516 L29.7351592,39.0050921 L29.7152921,39.41222 Z M29.424149,39.4876273 L29.8372038,39.5659005 L29.8847041,38.5891876 L29.7564711,38.564828 L29.424149,39.4876273 Z" id="Fill-28" fill="#000000"></path>
                    <path d="M34.173647,40.3514263 L34.0618495,40.9176081 L33.7958111,40.8670978 L33.9068862,40.2912437 L33.775041,38.8488324 L34.0436079,38.8998801 L34.0542638,39.9181476 L34.1837611,39.9426864 L34.5643061,38.9987514 L34.8330536,39.0497992 L34.173647,40.3514263 Z M32.9010698,38.8106809 C32.6603168,38.7650067 32.6198602,38.9747501 32.6046889,39.0535606 L32.3908468,40.1613855 C32.3751338,40.2428827 32.3335935,40.4588952 32.5860861,40.5067188 C32.8358696,40.5541842 32.872714,40.3627105 32.8970963,40.2362555 L32.9370111,40.0297361 L33.1882395,40.0773807 L33.1438094,40.3073641 C33.1297219,40.3804429 33.1116609,40.4637313 33.0742746,40.5280335 C32.95742,40.7290003 32.6776553,40.7003419 32.5582722,40.6777734 C32.5575498,40.6775943 32.5568273,40.6774152 32.5562855,40.6774152 C32.478262,40.6625487 32.4040314,40.6356815 32.3740501,40.6227852 C32.2201705,40.5618862 32.1336584,40.4748364 32.1096373,40.3580535 C32.096814,40.2880197 32.1078312,40.230882 32.1217381,40.1588779 L32.3388312,39.0334997 C32.3453332,39.0001844 32.3550861,38.9643614 32.3650196,38.9288967 C32.3957233,38.8019043 32.4468359,38.7295419 32.5418367,38.6795689 C32.6187765,38.6396263 32.7280455,38.6046989 32.9541691,38.6476865 C33.1103966,38.6772404 33.2180401,38.7250641 33.2922708,38.7974264 C33.3345335,38.8396975 33.3643341,38.8916408 33.3762544,38.9459126 C33.3923286,39.0062743 33.388897,39.0377985 33.3655984,39.1587009 L33.3166531,39.4121484 L33.0654248,39.3645038 L33.1035334,39.166582 C33.1320698,39.0184541 33.1423646,38.8565343 32.9010698,38.8106809 L32.9010698,38.8106809 Z M31.5401743,40.4390134 L31.1693822,40.3686213 L31.1021954,38.820174 L30.9721562,38.7954562 L30.7174963,40.2828253 L30.485232,40.2387631 L30.8601781,38.2957259 L31.2401813,38.3677301 L31.3192884,39.8912804 L31.4480633,39.9158191 L31.6920672,38.453526 L31.915301,38.4959762 L31.5401743,40.4390134 Z M29.8081256,40.1103378 L29.822755,39.7637507 L29.3596712,39.6758053 L29.238482,40.0021525 L28.9852669,39.9539706 L29.7403969,38.0831167 L30.0757894,38.1468815 L30.0669395,40.1594152 L29.8081256,40.1103378 Z M28.7098369,39.4658828 C28.6957493,39.5387825 28.6776883,39.6220709 28.6403021,39.6863731 C28.5234475,39.887519 28.2436828,39.8588606 28.124119,39.8361131 C28.1235772,39.8359339 28.1228548,39.8359339 28.1223129,39.8357548 C28.0442895,39.8208883 27.9700588,39.7940211 27.9400776,39.7813039 C27.7861979,39.7204049 27.6996858,39.633176 27.6754841,39.5163932 C27.6628414,39.4463593 27.6738586,39.3892217 27.687585,39.3172175 L27.9048586,38.1920185 C27.9113606,38.1587031 27.9211135,38.122701 27.9310471,38.0874154 C27.9617508,37.9602439 28.0128633,37.8880607 28.1076835,37.8379085 C28.1846233,37.7981451 28.2938923,37.7630386 28.5201965,37.8060261 C28.6764241,37.8357592 28.7838869,37.8834037 28.8582982,37.9557661 C28.9005609,37.9982163 28.9301809,38.0499804 28.9422818,38.1042522 C28.9583561,38.164793 28.9547439,38.1963172 28.9314452,38.3170406 L28.8826805,38.570488 L28.6314522,38.5228435 L28.6695609,38.3251007 C28.6980972,38.1767937 28.708392,38.0148739 28.4670972,37.9691997 C28.2263442,37.9235254 28.1858876,38.1330897 28.1707164,38.2120793 L27.9568743,39.3199043 C27.9411612,39.4012224 27.8994403,39.6172348 28.1521136,39.6652376 C28.4017164,39.7125239 28.4387414,39.5212293 28.4631238,39.3947742 L28.5030386,39.1880758 L28.7542669,39.2357203 L28.7098369,39.4658828 Z M26.9557537,39.5688738 L26.9703831,39.2222867 L26.5072994,39.1345205 L26.3861102,39.4606885 L26.1327145,39.4126857 L26.8878444,37.5416527 L27.223237,37.6054175 L27.2145677,39.6179513 L26.9557537,39.5688738 Z M25.4559693,39.2842604 L25.173676,39.2307051 L25.1601303,37.2136935 L25.435741,37.2661741 L25.3784876,38.6086394 L25.5067207,38.6329991 L25.9389201,37.3616423 L26.200082,37.4112571 L25.4559693,39.2842604 Z M23.5499932,38.8112183 C23.446865,38.8749831 23.3182707,38.8877003 23.1333262,38.8525938 C23.015388,38.8303835 22.8676491,38.7902618 22.7721065,38.6779569 C22.7242448,38.6217148 22.7123246,38.5756823 22.7090736,38.5586664 C22.6942636,38.5034991 22.6951666,38.4329278 22.7114215,38.348923 L22.9290564,37.2204999 C22.9554255,37.0781036 23.0106921,36.9808443 23.0934114,36.9315877 C23.1380221,36.905437 23.2281464,36.8699722 23.3757047,36.8762413 C23.3962942,36.9237067 23.4367508,36.961679 23.4916562,36.9720677 C23.5469228,36.9826354 23.5991191,36.961679 23.6357829,36.9246022 C23.8476383,36.9971437 23.9092263,37.1225241 23.9256618,37.1780497 C23.9413748,37.2373367 23.9446258,37.2917876 23.9189792,37.425049 L23.704234,38.5373518 C23.6771426,38.6777778 23.6323513,38.7573047 23.5499932,38.8112183 L23.5499932,38.8112183 Z M34.4841154,38.852952 L34.1801489,39.6061297 L34.1718409,38.793665 L33.6305531,38.6908531 L33.6307337,38.6917487 L33.5136985,38.9826311 C33.5117118,38.9611373 33.5082802,38.9396436 33.5019588,38.9158213 C33.4851621,38.8395184 33.4443443,38.7675143 33.3834788,38.7066152 C33.2601222,38.5862501 33.0932387,38.5434417 32.9785514,38.5215897 C32.7674184,38.4816471 32.6189571,38.4949016 32.481513,38.5661892 C32.3530994,38.6338946 32.2785075,38.7367065 32.239857,38.8970142 C32.2297428,38.9333746 32.2189062,38.9726007 32.2118625,39.0094983 L32.0917569,39.6317431 L32.0657491,38.3978213 L32.0664715,38.3940599 L31.5862298,38.3028905 L31.4184433,39.3082618 L31.3642603,38.2607985 L30.7575917,38.1456277 L30.7547019,38.1603151 L30.1973399,39.890564 L30.2054673,38.0408456 L29.6600255,37.9373172 L28.9267493,39.7540785 L28.905618,39.1355951 L28.9052568,39.1355951 L28.905618,39.133804 L28.4002715,39.0379776 L28.336155,39.3705937 C28.3041871,39.5355585 28.2819721,39.5592016 28.1764959,39.5391407 C28.0894419,39.5226622 28.0556679,39.4906006 28.083843,39.3439056 L28.2976851,38.2360807 C28.3247766,38.0960129 28.3625241,38.0798926 28.4427149,38.0951174 C28.5559573,38.1166111 28.5718509,38.14921 28.5425921,38.3009202 L28.4801011,38.6247598 L28.9852669,38.7205862 L29.0585946,38.3412211 C29.0835187,38.2113629 29.0902013,38.1581658 29.0679863,38.0741609 C29.0511896,37.9980371 29.0101911,37.9258539 28.9495062,37.8649549 C28.8261496,37.7445897 28.6592661,37.7017813 28.5443982,37.6801084 C28.3334459,37.6399867 28.184804,37.6534203 28.0475404,37.7245289 C27.9453153,37.7784424 27.878309,37.8559991 27.8353238,37.9656174 L27.8336983,37.96508 L27.3447874,39.3750716 L27.3529148,37.4993816 L26.8076536,37.3958532 L26.1486082,39.0286636 L26.3765378,37.3168636 L26.3776215,37.314356 L25.8527692,37.2145891 L25.5262265,38.1739279 L25.5695729,37.1608546 L25.02973,37.058401 L25.02973,37.0605504 L23.8436649,38.4735869 L24.0416133,37.4483339 C24.0683436,37.3098781 24.0694272,37.2335753 24.0457673,37.1449134 C24.0235523,37.0689688 23.9439034,36.9009591 23.681116,36.8092523 C23.6787681,36.7356362 23.6285585,36.6704384 23.5527024,36.6559301 C23.480639,36.6423174 23.4129103,36.6795732 23.3805811,36.7408305 L22.726954,36.6167039 C22.6256318,36.5975387 22.5273801,36.6638111 22.5078742,36.7642945 L22.1724817,38.5027826 L21.5251758,36.4280961 L21.3945949,36.4031991 L21.0351812,38.2656346 C20.9728708,38.2785309 20.9215776,38.327071 20.9089349,38.392627 C20.8921382,38.480035 20.9497528,38.564219 21.0377098,38.5810558 C21.1258474,38.5977134 21.210734,38.5405758 21.2275308,38.4531678 C21.2403541,38.3876118 21.210734,38.3236678 21.1578153,38.2889196 L21.4700898,36.6700801 L22.1175762,38.7454831 L22.2479766,38.770201 L22.6305083,36.7875794 C22.6370103,36.754085 22.6697007,36.7318747 22.7034747,36.7383229 L23.0646945,36.8069238 C23.0513293,36.8131929 23.0394091,36.8194619 23.0294755,36.8251935 C22.914427,36.8937945 22.8392933,37.0191749 22.8049775,37.2049169 L22.5887874,38.3256381 C22.5685591,38.4295247 22.5685591,38.5160371 22.5873425,38.586071 C22.5936639,38.6184908 22.613531,38.6835094 22.676925,38.7578421 C22.7975724,38.899701 22.9716804,38.948062 23.1098469,38.9743918 C23.2454849,39.0000052 23.4456007,39.0218573 23.6168189,38.9158213 L23.6180831,38.9149257 C23.6682927,38.8821477 23.7031504,38.8425634 23.7322286,38.8008296 L23.7347571,38.8040537 L25.0311748,37.2595469 L25.0450818,39.336741 L25.5370631,39.430239 L26.1805761,37.8103249 L25.9542719,39.508333 L25.9549944,39.508333 L25.9544525,39.5094077 L26.4695519,39.6072044 L26.5907412,39.2808572 L26.8365512,39.3276062 L26.8219218,39.6740142 L27.3431619,39.7728855 L27.3431619,39.7728855 L27.3435231,39.7730647 L27.6245521,38.9623911 L27.5606162,39.2932162 C27.545445,39.3716684 27.5311768,39.4454637 27.548696,39.5405737 C27.5817476,39.7023143 27.6973379,39.8232168 27.8904099,39.8995197 C27.9254482,39.9145653 28.0088899,39.9448357 28.1004591,39.9622099 C28.1011816,39.962389 28.1017234,39.962389 28.1024459,39.9625681 C28.2467531,39.9899727 28.5940659,40.0225716 28.7522802,39.7504962 C28.7696187,39.720584 28.7826227,39.6885225 28.7940011,39.6561027 L28.8073662,40.0496179 L28.807005,40.0508717 L29.3219238,40.1484892 L29.443113,39.8223212 L29.688923,39.8688911 L29.6742936,40.2154782 L30.1955338,40.3143495 L30.1955338,40.3127375 L30.196798,40.3130957 L30.5520577,39.2104651 L30.3338809,40.3406794 L30.8226113,40.4334609 L30.9983447,39.4082078 L31.0445808,40.4755528 L31.6429413,40.5891116 L31.9492557,39.0023337 L31.9758053,40.2717202 L31.975986,40.2717202 C31.9743605,40.3061103 31.9752635,40.3421123 31.9826685,40.382234 C32.0159007,40.5437956 32.1314911,40.6648772 32.3243824,40.7410009 C32.3599626,40.7562257 32.447739,40.7916904 32.536599,40.8042285 C32.6807257,40.831633 33.0280385,40.8642319 33.1862528,40.5921566 C33.2335725,40.5104802 33.2548845,40.4148329 33.2707782,40.3315446 L33.3395905,39.9754644 L32.8342441,39.879638 L32.7701276,40.2122541 C32.7383403,40.3772188 32.7159446,40.400862 32.6104685,40.3808011 C32.5234145,40.3643226 32.4896405,40.3320819 32.5179962,40.185566 L32.7316577,39.0777411 C32.7587492,38.9376733 32.7964966,38.921553 32.876868,38.9367777 C32.9899298,38.9582715 33.0058235,38.9908704 32.9765647,39.1425806 L32.9140737,39.466241 L33.4194201,39.5622466 L33.4197813,39.5595598 L33.4203232,39.5599181 L33.6569221,38.9724216 L33.7781113,40.276019 L33.64446,40.9690141 L34.1646165,41.0677063 L34.2932107,40.400862 L35.0254032,38.9557639 L34.4841154,38.852952 Z" id="Fill-30" fill="#000000"></path>
                </g>
            </g>
        </g>
    </g>
</svg>