<?xml version="1.0" encoding="UTF-8"?>
<svg width="108px" height="52px" viewBox="0 0 108 52" version="1.1" xmlns="http://www.w3.org/2000/svg" xmlns:xlink="http://www.w3.org/1999/xlink">
    <title>logo_storage</title>
    <defs>
        <rect id="path-1" x="0" y="0" width="108" height="52"></rect>
    </defs>
    <g id="Page-1" stroke="none" stroke-width="1" fill="none" fill-rule="evenodd">
        <g id="PCCUL000100_컬처서브메인" transform="translate(-674.000000, -1588.000000)">
            <g id="Group-5" transform="translate(368.000000, 944.000000)">
                <g id="Group" transform="translate(306.000000, 631.000000)">
                    <g id="logo_storage" transform="translate(0.000000, 13.000000)">
                        <mask id="mask-2" fill="white">
                            <use xlink:href="#path-1"></use>
                        </mask>
                        <use id="Mask" fill="#FFFFFF" xlink:href="#path-1"></use>
                        <g id="Group" mask="url(#mask-2)">
                            <g transform="translate(-4.000000, -11.000000)" id="Brand/Space/Storage">
                                <g id="Group" transform="translate(4.625000, 16.958333)" fill="#000000">
                                    <path d="M28.1189322,17.6960789 C24.2413322,17.6960789 21.4411722,16.3924949 21.3215882,16.3344789 C20.8337802,16.1024149 20.6348682,15.5364629 20.8787722,15.0711509 C21.1203082,14.6070229 21.7170442,14.4152149 22.2072202,14.6508309 C22.2309002,14.6591189 24.9292362,15.9070549 28.5380682,15.8064149 C31.4649162,15.7259029 32.5305162,14.9918229 32.5411722,14.9847189 L32.5198602,15.0001109 L33.7891082,16.4457749 C33.6422922,16.5629909 32.2499082,17.5883349 28.5949002,17.6889749 C28.4338762,17.6948949 28.2716682,17.6960789 28.1189322,17.6960789" id="Fill-1"></path>
                                    <path d="M22.2278218,28.6174133 C22.1461258,28.6174133 22.0620618,28.6103093 21.9768138,28.5889973 C21.4511178,28.4575733 21.1302538,27.9437173 21.2675978,27.4393333 C21.2723338,27.4227573 21.7483018,25.6834613 23.0554378,21.2647733 C24.3827018,16.7868853 29.3673418,6.31440533 29.5780938,5.87040533 C29.8054218,5.39680533 30.3926858,5.18368533 30.8899658,5.40154133 C31.3907978,5.61466133 31.6074698,6.17350933 31.3836938,6.64829333 C31.3315978,6.75366933 26.2486858,17.4380853 24.9640458,21.7786293 C23.6616458,26.1724533 23.1892298,27.8975413 23.1833098,27.9117493 C23.0672778,28.3379893 22.6682698,28.6174133 22.2278218,28.6174133" id="Fill-3"></path>
                                    <path d="M42.2320938,16.4230421 C41.1795178,16.4230421 40.1198378,16.1874261 39.1359338,15.4971541 C38.6954858,15.1869461 38.6007658,14.5961301 38.9263658,14.1805461 C39.2507818,13.7590421 39.8723818,13.6726101 40.3092778,13.9792661 C41.7135018,14.9608021 43.4883178,14.4706261 45.3673258,13.9496661 C45.5105898,13.9094101 45.6550378,13.8715221 45.7947498,13.8324501 C46.3204458,13.6891861 46.8686378,13.9792661 47.0178218,14.4777301 C47.1681898,14.9797461 46.8662698,15.5042581 46.3382058,15.6416021 L45.9202538,15.7588181 C44.7966378,16.0713941 43.5167338,16.4230421 42.2320938,16.4230421" id="Fill-5"></path>
                                    <path d="M64.1366858,28.8255605 C63.7388618,28.8255605 63.3635338,28.5934965 63.2131658,28.2193525 C62.3725258,26.1414325 62.2174218,23.9889205 62.7383818,21.8518005 C60.7303178,23.7615925 58.2889098,25.9259445 56.7579978,26.7654005 C55.2886538,27.5693365 53.7814218,27.4793525 52.7229258,26.5238645 C50.9919178,24.9598005 52.1439498,21.9713845 52.7359498,20.9531445 C54.2929098,18.2666485 56.7141898,16.2798965 58.8797258,14.6886005 C60.4248458,13.5519605 61.7521098,12.7717045 63.5967818,12.3798005 C65.1347978,12.0577525 66.1033098,12.5017525 66.6467658,12.9339125 C67.1416778,13.3293685 67.4566218,13.8408565 67.6496138,14.3464245 C67.7502538,14.2670965 67.8106378,14.2185525 67.8236618,14.2090805 C68.2380618,13.8917685 68.8454538,13.9414965 69.1935498,14.3251125 C69.5428298,14.7075445 69.5120458,15.2853365 69.1201418,15.6322485 C69.1118538,15.6405365 68.6796938,16.0241525 68.1326858,16.5238005 C67.5181898,17.1323765 66.7059658,18.0440565 65.9955658,19.1878005 C64.2645578,21.9844085 63.9496138,24.7964085 65.0625738,27.5421045 C65.2555658,28.0299125 65.0021898,28.5733685 64.4930698,28.7604405 C64.3746698,28.8030645 64.2550858,28.8255605 64.1366858,28.8255605 M64.6162058,14.1498805 C64.4551818,14.1498805 64.2610058,14.1700085 64.0265738,14.2185525 C62.5359178,14.5358645 61.4537418,15.1775925 60.0897738,16.1792565 C58.0864458,17.6509685 55.8498698,19.4766965 54.4693258,21.8636405 C53.8418058,22.9434485 53.5327818,24.6566965 54.0892618,25.1563445 C54.4977418,25.5281205 55.0625098,25.5186485 55.7658058,25.1326645 C58.1515658,23.8255285 63.6465098,18.3187445 64.5179338,17.3360245 C64.8459018,16.9630645 65.4154058,16.4125045 65.9860938,15.8761525 C65.9434698,15.4120245 65.7919178,14.7075445 65.3680458,14.3736565 C65.2899018,14.3097205 65.0874378,14.1498805 64.6162058,14.1498805" id="Fill-7"></path>
                                    <path d="M68.3720906,40.0653909 C68.2193546,40.0653909 68.0689866,40.0310549 67.9280906,39.9659349 C67.3041226,39.6663829 66.2030026,38.7381269 66.0573706,37.1420949 C65.8134666,34.5337429 68.1506826,31.2457749 73.0038986,27.3409429 C73.7427146,25.8964629 74.5774346,24.2684629 75.4062346,22.6546709 C75.2582346,22.7778069 75.1090506,22.8926549 74.9563146,23.0039509 C74.8023946,23.1164309 74.6401866,23.2419349 74.4685066,23.3698069 C72.7280266,24.6828629 70.0971786,26.6719829 68.1956746,24.9137429 C66.2894346,23.1555029 69.4732106,18.4585749 70.4310666,17.2958869 C71.6766346,15.7862869 75.8987786,11.5747989 78.8848266,11.9915669 C80.0486986,12.1537749 80.6359626,12.7256469 80.9224906,13.1755669 C81.0278666,13.3448789 81.1107466,13.5189269 81.1711306,13.6953429 C81.1746826,13.6953429 81.1770506,13.6965269 81.1806026,13.6977109 C81.6577546,13.9356949 81.8483786,14.4921749 81.6080266,14.9515669 C81.5677706,15.0285269 78.9878346,19.9811989 76.5760266,24.6686549 C77.7008266,23.8516949 81.5156746,21.1012629 83.0110666,20.3079829 C83.4870346,20.0534229 84.0932426,20.2132629 84.3584586,20.6679189 C84.6248586,21.1225749 84.4543626,21.6979989 83.9783946,21.9525589 C82.3752586,22.8038549 77.5090186,26.3594069 77.4616586,26.3984789 C76.3972426,27.1479509 75.4500426,27.8571669 74.6082186,28.5237589 C74.0742346,29.5680469 73.6077386,30.4974869 73.2489866,31.2327509 C71.0479306,35.6952469 69.2967946,39.4686549 69.2790346,39.5041749 C69.1701066,39.7409749 68.9605386,39.9209429 68.7071626,40.0085589 C68.5982346,40.0488149 68.4845706,40.0653909 68.3720906,40.0653909 M70.6347146,32.1029909 C68.3566986,34.5515029 67.9659786,36.0883349 68.0263626,36.9348949 C68.0382026,37.0994709 68.0654346,37.2427349 68.1080586,37.3717909 C68.6728266,36.1712149 69.5750346,34.2779989 70.6347146,32.1029909 M69.5998986,23.5852949 C70.2771466,24.1275669 72.1999626,22.6783509 73.2359626,21.8933589 C73.4135626,21.7595669 73.5805066,21.6328789 73.7450826,21.5144789 C76.0550666,19.8118869 78.3058506,16.5345749 79.3098826,14.9598549 C79.3513226,14.6981909 79.3607946,14.3583829 79.2258186,14.1511829 C79.1902986,14.0967189 79.0790026,13.9238549 78.5971146,13.8539989 C77.0543626,13.6396949 73.6550986,16.4363029 71.9903946,18.4585749 C71.3356426,19.2542229 70.6110346,20.4311189 70.1433546,21.4611989 C69.5466186,22.7718869 69.5466186,23.4254549 69.5998986,23.5852949" id="Fill-9"></path>
                                    <path d="M87.3420202,27.3022261 C86.0881642,27.3022261 84.7277482,26.9458421 83.6017642,25.7582901 C80.9211882,22.9380021 84.1653482,15.8967541 87.6569642,12.5270901 C90.8798122,9.42027413 92.9968042,10.5628341 93.7545642,11.1974581 C94.5300842,11.8427381 94.8983082,12.6916661 94.8166122,13.6507061 C94.4839082,17.6277621 85.8655722,22.9486581 84.6649962,23.6744501 C84.7407722,24.0083381 84.8757482,24.2865781 85.0699242,24.4949621 C86.1272362,25.6055541 87.6569642,25.7097461 90.0285162,24.8252981 C91.1130602,24.4215541 92.9778602,22.9723381 95.5696362,20.5167221 C95.6868522,20.4101621 95.7756522,20.3260981 95.8324842,20.2716341 C96.2255722,19.9105141 96.8542762,19.9223541 97.2307882,20.2941301 C97.6144042,20.6682741 97.6025642,21.2661941 97.2082922,21.6273141 C97.1585642,21.6758581 97.0745002,21.7540021 96.9703082,21.8534581 C95.1647082,23.5607861 92.5587242,25.9039221 90.7531242,26.5799861 C90.1267882,26.8108661 88.8066282,27.3022261 87.3420202,27.3022261 M91.6979562,12.3601461 C91.1402922,12.3601461 90.2878122,12.6715381 89.0671082,13.8519861 C86.9880042,15.8588661 85.3410602,18.9325301 84.7845802,21.3301301 C85.6808682,20.7440501 86.9560362,19.8749941 88.2300202,18.8768821 C91.0621482,16.6663541 92.7410602,14.7032821 92.8417002,13.5003381 C92.8736682,13.1332981 92.7552682,12.8692661 92.4474282,12.6123381 C92.3136362,12.4998581 92.0709162,12.3601461 91.6979562,12.3601461" id="Fill-11"></path>
                                    <path d="M42.8940682,27.2998581 C42.7993482,27.2998581 42.7010762,27.2868341 42.6039882,27.2572341 C42.0984202,27.1104181 41.8059722,26.6119541 41.9350282,26.1241461 C41.9563402,26.0448181 42.1978762,25.1674741 42.7768522,23.9159861 C43.4730442,22.0902581 44.4747082,19.4949301 45.1436682,17.8539061 C46.0837642,15.5368181 45.1851082,13.6601781 45.1756362,13.6436021 C44.9352842,13.1735541 45.1401162,12.6111541 45.6326602,12.3826421 C46.1263882,12.1553141 46.7183882,12.3518581 46.9575562,12.8195381 C47.0061002,12.9154421 48.0539402,15.0205941 47.2559242,17.7674741 C52.3767242,13.1546101 54.9649482,13.9490741 56.0554122,14.8406261 C56.4709962,15.1792501 56.5171722,15.7736181 56.1643402,16.1702581 C55.8067722,16.5645301 55.1828042,16.6095221 54.7636682,16.2685301 C53.9739402,15.6244341 51.7219722,16.3028661 48.4707082,19.2723381 C46.4969802,21.0672821 45.2833802,23.1688821 44.5978442,24.6595381 C44.1502922,25.8245941 43.8317962,26.6545781 43.8258762,26.6782581 C43.6802442,27.0595061 43.3037322,27.2998581 42.8940682,27.2998581" id="Fill-14"></path>
                                    <path d="M3.89606817,30.5436629 C1.74710817,30.5436629 1.06038817,29.8664149 0.750180168,29.5585749 C-0.0999318317,28.7238549 -0.225435832,27.5007829 0.363012168,25.9189589 C0.544164168,25.4299669 1.11130017,25.1742229 1.62634017,25.3459029 C2.14256417,25.5235029 2.41014817,26.0610389 2.22781217,26.5512149 C2.05139617,27.0295509 1.80630817,27.8879509 2.17808417,28.2549909 C2.38173217,28.4550869 3.71610017,29.3715029 9.84803617,27.5351189 C13.8487722,26.3380949 16.5636842,24.4235669 17.1106922,22.4202389 C17.6304682,20.5234709 14.0157162,16.9844949 11.6240362,14.6401749 C10.7076202,13.7438869 9.84211617,12.8949589 9.24538017,12.1952149 C8.13478817,10.8999189 7.70144417,9.40689493 7.99862817,7.87479893 C8.37987617,5.88686293 9.92736417,4.05403093 12.3545642,2.71492693 C16.0036522,0.698574927 20.2482922,-0.421489073 22.0586282,0.148014927 C22.3688362,0.229710927 23.6795242,0.654766927 24.1010282,1.96663893 C24.5249002,3.28916693 23.8571242,4.85323093 22.0586282,6.74763093 C21.6927722,7.13006293 21.0640682,7.15966293 20.6579562,6.81275093 C20.2506602,6.46228693 20.2210602,5.86555093 20.5881002,5.48075093 C22.3605482,3.61950293 22.2764842,2.74926293 22.2089962,2.52548693 C22.0823082,2.11582293 21.5199082,1.96190293 21.5175402,1.96071893 C21.4867562,1.95243093 21.4701802,1.94887893 21.4382122,1.93940693 C20.6532202,1.67182293 17.0822762,2.28276693 13.3491242,4.34529493 C11.4606442,5.38839893 10.2198122,6.79854293 9.94986017,8.21460693 C9.75686817,9.20087893 10.0410282,10.1386069 10.7822122,11.0064789 C11.3244842,11.6411029 12.1627562,12.4627989 13.0460202,13.3283029 C16.2250602,16.4434069 19.8244202,19.9717269 19.0264042,22.8926549 C17.9915882,26.6944789 12.6789802,28.6646549 10.4435882,29.3336149 C7.40070817,30.2441109 5.32515617,30.5436629 3.89606817,30.5436629" id="Fill-16"></path>
                                    <path d="M33.5325354,27.3004501 L33.5313514,27.3004501 C32.4562794,27.3004501 31.4901354,26.8339541 30.8117034,25.9933141 C29.7508394,24.6778901 29.5365354,22.6260181 30.2161514,20.2106581 C31.1432234,16.8990101 32.5628394,14.5156181 34.4300074,13.1244181 C35.9419754,11.9996181 37.2526634,11.9108181 37.6185194,11.9108181 C37.6658794,11.9108181 37.6871914,11.9120021 37.6871914,11.9120021 C39.0606314,11.9664661 40.0540074,12.6709461 40.4897194,13.8987541 C41.7068714,17.3181461 38.1596074,24.7157781 36.0307754,26.3923221 C35.2765674,26.9843221 34.4122474,27.3004501 33.5325354,27.3004501 M37.6031274,13.7957461 C37.4728874,13.7957461 34.0440234,13.8762581 32.1306794,20.6972821 C31.6215594,22.5040661 31.7127274,24.0172181 32.3816874,24.8460181 C32.6812394,25.2177941 33.0814314,25.4143381 33.5325354,25.4143381 C33.9457514,25.4143381 34.3696234,25.2521301 34.7662634,24.9442901 C36.3469034,23.6963541 39.5034474,17.0079381 38.6166314,14.5014101 C38.4413994,14.0136021 38.1596074,13.8158741 37.6031274,13.7957461" id="Fill-19"></path>
                                </g>
                            </g>
                        </g>
                    </g>
                </g>
            </g>
        </g>
    </g>
</svg>