<?xml version="1.0" encoding="UTF-8"?>
<svg width="108px" height="52px" viewBox="0 0 108 52" version="1.1" xmlns="http://www.w3.org/2000/svg" xmlns:xlink="http://www.w3.org/1999/xlink">
    <title>logo_ironwood</title>
    <defs>
        <rect id="path-1" x="0" y="0" width="108" height="52"></rect>
        <polygon id="path-3" points="0 0 14.0393334 0 14.0393334 16.6044416 0 16.6044416"></polygon>
        <polygon id="path-5" points="0 39.8526095 83.456 39.8526095 83.456 0 0 0"></polygon>
    </defs>
    <g id="Page-1" stroke="none" stroke-width="1" fill="none" fill-rule="evenodd">
        <g id="PCCUL000100_컬처서브메인" transform="translate(-980.000000, -1588.000000)">
            <g id="Group-5" transform="translate(368.000000, 944.000000)">
                <g id="Group" transform="translate(612.000000, 631.000000)">
                    <g id="logo_ironwood" transform="translate(0.000000, 13.000000)">
                        <mask id="mask-2" fill="white">
                            <use xlink:href="#path-1"></use>
                        </mask>
                        <use id="Mask" fill="#FFFFFF" xlink:href="#path-1"></use>
                        <g id="Group" mask="url(#mask-2)">
                            <g transform="translate(-5.000000, -6.000000)" id="Brand/Space/Iron&amp;Wood">
                                <g id="Group" transform="translate(5.333333, 12.000000)">
                                    <g id="Group-3" transform="translate(69.416667, 0.803771)">
                                        <mask id="mask-4" fill="white">
                                            <use xlink:href="#path-3"></use>
                                        </mask>
                                        <g id="Clip-2"></g>
                                        <path d="M8.89704428,12.9822611 C8.63421967,13.3226958 8.36277171,13.6395101 8.09169868,13.9255802 C7.8146268,14.2180242 7.5120598,14.4774744 7.1933709,14.6953076 C6.8720575,14.9146406 6.52374928,15.0886072 6.15706958,15.2130834 C5.78926509,15.3386843 5.3719701,15.4024221 4.91718229,15.4024221 C4.4612697,15.4024221 4.0226038,15.3229373 3.61430707,15.1658424 C3.20638528,15.0094974 2.84008051,14.7897895 2.52439103,14.5142174 C2.2079517,14.2375204 1.95150086,13.8963358 1.76141231,13.5011616 C1.57094882,13.1041127 1.47384244,12.6620725 1.47384244,12.1874135 C1.47384244,11.7648695 1.53045658,11.3753191 1.64031052,11.0288856 C1.75053939,10.6798275 1.92713053,10.3480161 2.16371018,10.040575 C2.39841518,9.73500863 2.71110523,9.44218976 3.09278206,9.16924209 C3.46621047,8.9026682 3.92512248,8.61359862 4.45714549,8.30953191 L4.55800115,8.25141806 L8.97502933,12.8810305 L8.89704428,12.9822611 Z M3.31548936,4.62436343 C3.17939045,4.31242323 3.11002875,4.00610696 3.11002875,3.71291317 C3.11002875,2.94581024 3.35898102,2.32830362 3.85088672,1.87726509 C4.33904313,1.42960092 4.94980104,1.20239448 5.66703853,1.20239448 C6.32241288,1.20239448 6.88705463,1.40972973 7.34446694,1.81952616 C7.80787809,2.23307188 8.04183324,2.78646578 8.04183324,3.46321104 C8.04183324,3.89700288 7.93910293,4.28917769 7.73701668,4.62998735 C7.53905463,4.96254859 7.2826038,5.25836688 6.97628752,5.50919379 C6.67409546,5.7573962 6.34115929,5.98047844 5.98722714,6.17281656 C5.62879586,6.36777918 5.31160667,6.54886947 5.01616331,6.72583554 L4.92955492,6.7787004 L4.84894537,6.71608741 C4.70459804,6.60435883 4.53325589,6.4333916 4.33904313,6.20730995 C4.14595515,5.98422772 3.95849109,5.7386498 3.78302473,5.4773249 C3.60418401,5.2133755 3.44633928,4.92655549 3.31548936,4.62436343 L3.31548936,4.62436343 Z M10.5924692,12.6403266 L13.4700426,7.79213111 L11.9770788,7.79213111 L9.71776193,11.7052559 L5.73827487,7.60316734 L5.91674066,7.51130995 C6.31791374,7.30359977 6.73408396,7.06514549 7.15512823,6.80194595 C7.56679931,6.54474526 7.94435193,6.24555262 8.27653824,5.91374123 C8.60385049,5.58642898 8.87342381,5.21712478 9.07813456,4.8159517 C9.27834618,4.42227717 9.3799517,3.96748936 9.3799517,3.46321104 C9.3799517,2.89744451 9.2813456,2.3946659 9.08713283,1.96874756 C8.89179528,1.54432892 8.62259689,1.18289822 8.28516159,0.896078206 C7.94547671,0.607008626 7.54542841,0.383176538 7.09513974,0.230205865 C6.64222657,0.0776101208 6.15407016,0 5.64416791,0 C5.08814951,0 4.56924899,0.0817343301 4.10208856,0.241828637 C3.63830247,0.401173088 3.22775618,0.6400023 2.88057274,0.950442783 C2.53451409,1.26050834 2.26081656,1.64480966 2.06622887,2.09097412 C1.87089132,2.54013801 1.77191029,3.06316274 1.77191029,3.64467625 C1.77191029,4.35628982 1.9586245,5.02216216 2.32867855,5.62317194 C2.70848074,6.24142841 3.14189764,6.81019436 3.61693157,7.31447269 L3.75790454,7.46444393 L3.5719402,7.55105233 C3.09915584,7.77225992 2.64024382,8.03545946 2.20757677,8.33427717 C1.78090857,8.62859574 1.39585739,8.96790569 1.06442093,9.3439586 C0.735983899,9.71626222 0.473534215,10.1414307 0.284195515,10.6074664 C0.0952317424,11.0720023 0,11.5957769 0,12.163793 C0,12.8656584 0.132349626,13.4977872 0.394049454,14.0421829 C0.656874066,14.5899528 1.01530535,15.058613 1.45772053,15.4365405 C1.90276021,15.8155929 2.42878436,16.1080368 3.02117079,16.3056239 C3.61618171,16.5039609 4.24643588,16.6044416 4.8946866,16.6044416 C5.94973433,16.6044416 6.85518574,16.3644876 7.58479586,15.8902036 C8.32377918,15.4102956 9.02976883,14.7380495 9.68364347,13.8910868 L9.7893732,13.754613 L12.1364232,16.19577 L14.0395584,16.19577 L10.5924692,12.6403266 Z" id="Fill-1" fill="#1E1E1C" mask="url(#mask-4)"></path>
                                    </g>
                                    <mask id="mask-6" fill="white">
                                        <use xlink:href="#path-5"></use>
                                    </mask>
                                    <g id="Clip-5"></g>
                                    <polygon id="Fill-4" fill="#1E1E1C" mask="url(#mask-6)" points="0.112853364 17.979678 2.64924209 17.979678 2.64924209 0.225706728 0.112853364 0.225706728"></polygon>
                                    <path d="M68.8240927,33.491729 C68.0123733,35.7491712 66.110363,37.2455094 63.4472485,37.2455094 L59.5157523,37.2455094 L59.5157523,24.3108642 L63.4472485,24.3108642 C66.0844929,24.3108642 67.9872531,25.7820821 68.7985976,28.0136543 C69.1281594,28.8504938 69.2807551,29.7638187 69.2807551,30.7783742 C69.2807551,31.7670597 69.1281594,32.6800097 68.8240927,33.491729 M63.1934222,21.9012012 L56.9793635,21.9012012 L56.9793635,39.6547975 L63.1934222,39.6547975 C67.2006539,39.6547975 70.16821,37.7276669 71.3601065,34.3795588 C71.7406585,33.3140131 71.9431197,32.1221166 71.9431197,30.7783742 C71.9431197,29.4590022 71.7406585,28.2926008 71.3852267,27.22743 C70.1929553,23.8542017 67.2006539,21.9012012 63.1934222,21.9012012" id="Fill-6" fill="#1E1E1C" mask="url(#mask-6)"></path>
                                    <polygon id="Fill-7" fill="#1E1E1C" mask="url(#mask-6)" points="58.4553431 17.9790781 58.4553431 0.225481771 55.9189543 0.225481771 55.9189543 15.4325663 48.6532223 0.225481771 47.2198721 0.225481771 46.0032304 0.225481771 44.6838583 0.225481771 44.6838583 17.9790781 47.2198721 17.9790781 47.2198721 2.77199356 54.4856041 17.9790781 55.9189543 17.9790781 57.135971 17.9790781"></polygon>
                                    <path d="M10.6236258,2.63484485 L14.6571025,2.63484485 C15.8741191,2.63484485 16.532118,3.01539689 17.0139006,3.85223646 C17.2171117,4.20729339 17.3183423,4.66395584 17.3183423,5.19672869 C17.3183423,5.75387188 17.1916166,6.23602944 16.9636603,6.61658148 C16.5066229,7.40280575 15.8493739,7.78298286 14.6571025,7.78298286 L10.6236258,7.78298286 L10.6236258,2.63484485 Z M10.6236258,10.0659202 L12.1319616,10.0659202 L17.1245044,17.9791531 L20.0032025,17.9791531 L14.8258201,9.77347625 C17.0000283,9.6647471 18.5094889,8.9835027 19.3219581,7.58014675 C19.7021353,6.92102312 19.9053463,6.13517378 19.9053463,5.17123358 C19.9053463,4.08019275 19.6766401,3.19236297 19.2713428,2.48262404 C18.3835131,0.935670615 16.8380593,0.225556757 14.3016706,0.225556757 L8.08723703,0.225556757 L8.08723703,17.9791531 L10.6236258,17.9791531 L10.6236258,10.0659202 Z" id="Fill-8" fill="#1E1E1C" mask="url(#mask-6)"></path>
                                    <path d="M32.1256409,37.5976419 C28.3576133,37.5976419 25.292201,34.5318546 25.292201,30.763827 C25.292201,26.9965493 28.3576133,23.931137 32.1256409,23.931137 C35.8936685,23.931137 38.9587059,26.9965493 38.9587059,30.763827 C38.9587059,34.5318546 35.8936685,37.5976419 32.1256409,37.5976419 M44.9181884,21.6759443 C42.4234167,21.6759443 40.1659745,22.6833762 38.5237893,24.3109392 C36.8816041,22.6822514 34.6211625,21.6759443 32.1256409,21.6759443 C27.1064782,21.6759443 23.0373833,25.7446643 23.0373833,30.763827 C23.0373833,35.7837396 27.1064782,39.8528345 32.1256409,39.8528345 C34.6211625,39.8528345 36.8816041,38.8461525 38.5237893,37.2174647 C40.1659745,38.8450277 42.4234167,39.8528345 44.9181884,39.8528345 C49.9373511,39.8528345 54.0060711,35.7837396 54.0060711,30.763827 C54.0060711,25.7446643 49.9373511,21.6759443 44.9181884,21.6759443" id="Fill-9" fill="#1E1E1C" mask="url(#mask-6)"></path>
                                    <polygon id="Fill-10" fill="#1E1E1C" mask="url(#mask-6)" points="15.5507811 37.2816524 12.7159496 21.901726 11.0797633 21.901726 10.1795609 21.901726 8.54337458 21.901726 5.70854307 37.2816524 2.76423255 21.901726 -0.000112478435 21.901726 3.57670178 39.6549474 5.31861783 39.6549474 6.11309051 39.6549474 7.85500656 39.6549474 10.6298496 24.379626 13.4043177 39.6549474 15.1462337 39.6549474 15.9407064 39.6549474 17.6822475 39.6549474 21.2594367 21.901726 18.4950917 21.901726"></polygon>
                                    <path d="M32.0201737,2.25553007 C35.7882013,2.25553007 38.8532386,5.32056745 38.8532386,9.08822013 C38.8532386,12.8558728 35.7882013,15.92166 32.0201737,15.92166 C28.2521461,15.92166 25.1867338,12.8558728 25.1867338,9.08822013 C25.1867338,5.32056745 28.2521461,2.25553007 32.0201737,2.25553007 M32.0201737,18.1768527 C37.0393364,18.1768527 41.1084313,14.1077578 41.1084313,9.08822013 C41.1084313,4.06868246 37.0393364,-3.74928119e-05 32.0201737,-3.74928119e-05 C27.0010109,-3.74928119e-05 22.931916,4.06868246 22.931916,9.08822013 C22.931916,14.1077578 27.0010109,18.1768527 32.0201737,18.1768527" id="Fill-11" fill="#1E1E1C" mask="url(#mask-6)"></path>
                                </g>
                                <g id="Logo_Space"></g>
                            </g>
                        </g>
                    </g>
                </g>
            </g>
        </g>
    </g>
</svg>