<?xml version="1.0" encoding="UTF-8"?>
<svg width="108px" height="52px" viewBox="0 0 108 52" version="1.1" xmlns="http://www.w3.org/2000/svg" xmlns:xlink="http://www.w3.org/1999/xlink">
    <title>logo_card_factory</title>
    <defs>
        <polygon id="path-1" points="0 0 12.6312578 0 12.6312578 15.7281264 0 15.7281264"></polygon>
        <polygon id="path-3" points="0 0 10.6647453 0 10.6647453 15.5181479 0 15.5181479"></polygon>
    </defs>
    <g id="Page-1" stroke="none" stroke-width="1" fill="none" fill-rule="evenodd">
        <g id="Artboard" transform="translate(-133.000000, -384.000000)">
            <g id="logo_card_factory" transform="translate(133.000000, 384.000000)">
                <rect id="Rectangle-Copy-2" fill="#FFFFFF" x="0" y="0" width="108" height="52"></rect>
                <g id="Group-25" transform="translate(0.000000, 8.000000)">
                    <path d="M0,12.6878703 L0,4.68588998 C0,3.50200621 0.502741621,2.59572976 1.5257857,1.98327127 L3.97276263,0.610938737 C4.41328872,0.336370913 4.93660161,0.209218655 5.41425632,0.209218655 L10.6022287,0.209218655 C10.8515926,0.209218655 10.9770271,0.336370913 10.9770271,0.591688595 L10.9770271,2.13271317 C10.9770271,2.36472805 10.8515926,2.47009725 10.6022287,2.47009725 L3.34508821,2.47009725 C3.09421914,2.47009725 2.99035934,2.61700623 2.99035934,2.89157406 L2.99035934,13.0678074 C2.99035934,13.3423752 3.09421914,13.4705406 3.34508821,13.4705406 L10.8119553,13.4705406 C11.0402461,13.4705406 11.1887606,13.5748966 11.1887606,13.785635 C11.1887606,14.0186631 11.0828939,14.2091382 10.8515926,14.3337575 L9.05587178,15.3489493 C8.57018926,15.6230105 8.07196328,15.7278731 7.56821818,15.7278731 L3.05307661,15.7278731 C1.5679317,15.7278731 0,14.6513849 0,12.6878703" id="Fill-1" fill="#000000"></path>
                    <path d="M21.1403353,9.1416901 L19.2161696,2.36209382 C19.1745253,2.23747447 19.0686585,2.151862 18.9035867,2.151862 C18.7570792,2.151862 18.6722854,2.23747447 18.6105716,2.36209382 L16.7079806,9.1416901 C16.6231868,9.43601465 16.7270466,9.52010738 16.9789192,9.52010738 L20.8061777,9.52010738 C21.1197641,9.52010738 21.2236239,9.43601465 21.1403353,9.1416901 L21.1403353,9.1416901 Z M25.8867782,15.3903877 C25.9705685,15.6436791 25.8867782,15.7277718 25.6153379,15.7277718 L23.377084,15.7277718 C23.1277201,15.7277718 22.9606413,15.6436791 22.8969206,15.370631 L21.9983076,12.1811863 C21.8949495,11.9709545 21.7268672,11.8012493 21.4764999,11.8012493 L16.3502413,11.8012493 C16.1003757,11.8012493 15.9117221,11.9709545 15.8710814,12.1811863 L14.9498901,15.370631 C14.8881763,15.6436791 14.7612366,15.7277718 14.469225,15.7277718 L12.1903303,15.7277718 C11.9600325,15.7277718 11.8968135,15.6436791 11.9600325,15.3903877 L16.4365402,0.568284474 C16.498254,0.337282762 16.6663363,0.209623922 16.9162019,0.209623922 L20.8884628,0.209623922 C21.1809761,0.209623922 21.3500619,0.337282762 21.4333504,0.568284474 L25.8867782,15.3903877 Z" id="Fill-3" fill="#000000"></path>
                    <path d="M36.2593614,6.94580607 L36.2593614,2.89162471 C36.2593614,2.61705689 36.1138573,2.47014791 35.86349,2.47014791 L30.3609278,2.47014791 C30.1115639,2.47014791 30.0072024,2.61705689 30.0072024,2.89162471 L30.0072024,6.96606938 C30.0072024,7.2406372 30.1115639,7.36728288 30.3609278,7.36728288 L35.86349,7.36728288 C36.1138573,7.36728288 36.2593614,7.21986731 36.2593614,6.94580607 M39.249219,2.59578042 L39.249219,5.17276662 C39.249219,6.37640711 38.7259061,7.2406372 37.6602143,7.85157594 L36.5729477,8.50760054 C36.3426499,8.6550161 36.2794309,8.82522789 36.4465097,9.0562296 L40.1468285,15.4538625 C40.253197,15.6853708 40.2316223,15.7279238 39.9381055,15.7279238 L37.346628,15.7279238 C37.1153267,15.7279238 36.9076071,15.643831 36.8017403,15.4128293 L33.7085247,10.0080985 C33.5815849,9.77507045 33.3718584,9.64690503 33.1014215,9.64690503 L30.3609278,9.64690503 C30.1115639,9.64690503 30.0072024,9.79482718 30.0072024,10.0491317 L30.0072024,15.3702764 C30.0072024,15.643831 29.8401236,15.7279238 29.5872475,15.7279238 L27.4132162,15.7279238 C27.1623471,15.7279238 27.0775533,15.643831 27.0775533,15.3905397 L27.0775533,0.59123267 C27.0775533,0.336421572 27.1623471,0.209269314 27.4132162,0.209269314 L29.5872475,0.209269314 C29.8401236,0.209269314 30.0072024,0.336421572 30.0072024,0.59123267 L30.0072024,0.928616749 C30.0072024,1.22395446 30.1321352,1.3283105 30.4035755,1.24472435 L35.9442698,0.0846499693 C36.2172154,0.0405772743 36.4675827,5.06582701e-05 36.6562363,5.06582701e-05 C37.6602143,5.06582701e-05 39.249219,0.780188018 39.249219,2.59578042" id="Fill-5" fill="#000000"></path>
                    <g id="Group-9" transform="translate(41.965529, 0.000000)">
                        <mask id="mask-2" fill="white">
                            <use xlink:href="#path-1"></use>
                        </mask>
                        <g id="Clip-8"></g>
                        <path d="M9.66096798,13.0675541 L9.66096798,2.89132077 C9.66096798,2.61725952 9.51496218,2.46984396 9.20187758,2.46984396 L3.2843779,2.46984396 C3.01243582,2.46984396 2.90707081,2.61725952 2.90707081,2.89132077 L2.90707081,13.0908569 C2.90707081,13.3426285 3.01243582,13.4702873 3.26280316,13.4702873 L9.20187758,13.4702873 C9.51496218,13.4702873 9.66096798,13.3426285 9.66096798,13.0675541 M12.6312578,2.59547647 L12.6312578,11.2311918 C12.6312578,12.3937991 12.0868719,13.3000755 11.0417514,13.9348236 L8.6379239,15.3492025 C8.13568402,15.6232638 7.63244066,15.7281264 7.09056347,15.7281264 L0.315091555,15.7281264 C0.0847937465,15.7281264 0,15.6440337 0,15.3907423 L0,0.591435303 C0,0.336624205 0.0847937465,0.209471947 0.315091555,0.209471947 L2.51069768,0.209471947 C2.76257023,0.209471947 2.90707081,0.336624205 2.90707081,0.591435303 L2.90707081,0.928819382 C2.90707081,1.22365051 3.03401056,1.33003288 3.32602216,1.2444204 L9.34938859,0.0858657678 C9.68404794,0.0407799074 9.87069453,-0.00025329135 10.0377733,-0.00025329135 C11.3131917,-0.00025329135 12.6312578,1.07572837 12.6312578,2.59547647" id="Fill-7" fill="#000000" mask="url(#mask-2)"></path>
                    </g>
                    <g id="Group-12" transform="translate(0.000000, 19.689400)">
                        <mask id="mask-4" fill="white">
                            <use xlink:href="#path-3"></use>
                        </mask>
                        <g id="Clip-11"></g>
                        <path d="M10.6647453,1.92298793 C10.6647453,2.1524699 10.4976665,2.25986543 10.2262262,2.25986543 L3.36846921,2.25986543 C3.09702887,2.25986543 2.99116213,2.40728099 2.99116213,2.68184882 L2.97059086,6.29327689 C2.97059086,6.54656824 3.07445066,6.65295061 3.34538926,6.65295061 L9.64019602,6.65295061 C9.89206857,6.65295061 9.99592837,6.77756996 9.99592837,7.05112461 L9.99592837,8.59316236 C9.99592837,8.84645371 9.89206857,8.93206618 9.64019602,8.93206618 L3.34538926,8.93206618 C3.07445066,8.93206618 2.97059086,9.10075822 2.97059086,9.35506274 L2.99116213,15.1610071 C2.99116213,15.4340551 2.82458506,15.5181479 2.55264299,15.5181479 L0.376604652,15.5181479 C0.127240794,15.5181479 -0.000200695258,15.4340551 -0.000200695258,15.1807638 L-0.000200695258,4.47768449 C-0.000200695258,3.29532047 0.482973138,2.38600452 1.50601722,1.77354604 L3.97456889,0.401213499 C4.43215408,0.127658841 4.93539744,0 5.41706606,0 L10.2262262,0 C10.4976665,0 10.6647453,0.127658841 10.6647453,0.381963356 L10.6647453,1.92298793 Z" id="Fill-10" fill="#000000" mask="url(#mask-4)"></path>
                    </g>
                    <path d="M20.2622936,28.621416 L18.3406365,21.8418197 C18.2969853,21.7172004 18.1926237,21.6315879 18.0265484,21.6315879 C17.8775322,21.6315879 17.7952471,21.7172004 17.7325299,21.8418197 L15.8309423,28.621416 C15.7451451,28.9157406 15.8500083,28.9998333 16.1003757,28.9998333 L19.9266308,28.9998333 C20.2417223,28.9998333 20.3475891,28.9157406 20.2622936,28.621416 L20.2622936,28.621416 Z M25.0087364,34.8701136 C25.0935302,35.123405 25.0087364,35.2074977 24.7372961,35.2074977 L22.5005475,35.2074977 C22.2481732,35.2074977 22.0810944,35.123405 22.0198823,34.8503569 L21.1202658,31.6609122 C21.0154026,31.4506804 20.8488255,31.2809752 20.5969529,31.2809752 L15.47521,31.2809752 C15.2228357,31.2809752 15.0341821,31.4506804 14.9940431,31.6609122 L14.0738553,34.8503569 C14.0106363,35.123405 13.8841983,35.2074977 13.5931902,35.2074977 L11.3137938,35.2074977 C11.0839977,35.2074977 11.0192735,35.123405 11.0839977,34.8701136 L15.557495,20.0480104 C15.6197105,19.8170087 15.7887963,19.6893498 16.0406688,19.6893498 L20.010421,19.6893498 C20.3034361,19.6893498 20.4720201,19.8170087 20.5553087,20.0480104 L25.0087364,34.8701136 Z" id="Fill-13" fill="#000000"></path>
                    <path d="M26.3048766,32.1675962 L26.3048766,24.1656159 C26.3048766,22.9817321 26.8076182,22.0754557 27.831164,21.4629972 L30.2786427,20.0906647 C30.7166601,19.8160968 31.239973,19.6889446 31.7211399,19.6889446 L36.9076071,19.6889446 C37.1574727,19.6889446 37.2824055,19.8160968 37.2824055,20.0714145 L37.2824055,21.6124391 C37.2824055,21.844454 37.1574727,21.9498232 36.9076071,21.9498232 L29.65147,21.9498232 C29.3990957,21.9498232 29.2962394,22.0967321 29.2962394,22.3713 L29.2962394,32.5475333 C29.2962394,32.8221011 29.3990957,32.9502665 29.65147,32.9502665 L37.1168319,32.9502665 C37.3456245,32.9502665 37.4936372,33.0546225 37.4936372,33.265361 C37.4936372,33.498389 37.3882722,33.6888641 37.1574727,33.8134834 L35.3592432,34.8286752 C34.8780763,35.1027364 34.3773416,35.207599 33.8756035,35.207599 L29.3584549,35.207599 C27.87331,35.207599 26.3048766,34.1311108 26.3048766,32.1675962" id="Fill-15" fill="#000000"></path>
                    <path d="M50.3966866,21.6123884 C50.3966866,21.8418704 50.2466669,21.9492659 50.018376,21.9492659 L45.9392449,21.9492659 C45.6683063,21.9492659 45.5840143,22.0966815 45.5840143,22.350986 L45.5840143,34.8504076 C45.5840143,35.1234556 45.4585798,35.2075484 45.2087142,35.2075484 L42.9925368,35.2075484 C42.7612355,35.2075484 42.6789504,35.1234556 42.6789504,34.8504076 L42.6789504,22.350986 C42.6789504,22.0966815 42.5324429,21.9492659 42.2599991,21.9492659 L38.2029444,21.9492659 C37.9942214,21.9492659 37.8692886,21.8418704 37.8692886,21.6123884 L37.8692886,20.048061 C37.8692886,19.8170593 37.9942214,19.6894005 38.2029444,19.6894005 L50.018376,19.6894005 C50.2466669,19.6894005 50.3966866,19.8170593 50.3966866,20.048061 L50.3966866,21.6123884 Z" id="Fill-17" fill="#000000"></path>
                    <path d="M60.7640015,22.371148 C60.7640015,22.0970868 60.5778567,21.9496712 60.2642703,21.9496712 L54.2409039,21.9496712 C53.9699653,21.9496712 53.8656038,22.0970868 53.8656038,22.371148 L53.8656038,32.5473813 C53.8656038,32.8224557 53.9699653,32.9501145 54.2409039,32.9501145 L60.2642703,32.9501145 C60.5778567,32.9501145 60.7640015,32.8224557 60.7640015,32.5473813 L60.7640015,22.371148 Z M53.9293245,35.25 C51.899292,35.25 50.8541714,33.58081 50.8541714,32.1674443 L50.8541714,24.1659705 C50.8541714,23.004883 51.356913,22.0970868 52.3799571,21.4628452 L54.8274358,20.0287096 C55.2875297,19.7531286 55.7686966,19.6269895 56.3105738,19.6269895 L60.6195009,19.6269895 C61.9782078,19.6269895 63.6926471,20.7460307 63.6926471,22.7733747 L63.6926471,30.7535719 C63.6926471,31.9349228 63.1693342,32.8422124 62.1477953,33.4577104 L59.7640374,34.870063 C59.239721,35.1451374 58.7600594,35.25 58.1946005,35.25 L53.9293245,35.25 Z" id="Fill-19" fill="#000000"></path>
                    <path d="M75.4230842,26.4255826 L75.4230842,22.3714013 C75.4230842,22.0968335 75.2770784,21.9499245 75.0272128,21.9499245 L69.5271593,21.9499245 C69.2752867,21.9499245 69.1714269,22.0968335 69.1714269,22.3714013 L69.1714269,26.4458459 C69.1714269,26.7204138 69.2752867,26.8470594 69.5271593,26.8470594 L75.0272128,26.8470594 C75.2770784,26.8470594 75.4230842,26.6996439 75.4230842,26.4255826 M78.4134436,22.075557 L78.4134436,24.6525432 C78.4134436,25.8561837 77.8916359,26.7204138 76.8259441,27.3313525 L75.739681,27.9873771 C75.507878,28.1347927 75.4451607,28.3050045 75.6117378,28.5360062 L79.315067,34.9336391 C79.4174216,35.1651474 79.3973521,35.2077003 79.1058422,35.2077003 L76.5108525,35.2077003 C76.2810564,35.2077003 76.0738386,35.1236076 75.9689753,34.8926059 L72.8722475,29.4878751 C72.7453077,29.254847 72.5380899,29.1266816 72.2661478,29.1266816 L69.5271593,29.1266816 C69.2752867,29.1266816 69.1714269,29.2746038 69.1714269,29.5289083 L69.1714269,34.850053 C69.1714269,35.1236076 69.0038464,35.2077003 68.7519738,35.2077003 L66.5784442,35.2077003 C66.3275751,35.2077003 66.2437849,35.1236076 66.2437849,34.8703163 L66.2437849,20.0710092 C66.2437849,19.8161981 66.3275751,19.6890459 66.5784442,19.6890459 L68.7519738,19.6890459 C69.0038464,19.6890459 69.1714269,19.8161981 69.1714269,20.0710092 L69.1714269,20.4083933 C69.1714269,20.703731 69.2963597,20.8080871 69.5672983,20.7245009 L75.1094979,19.5644265 C75.3809382,19.5203538 75.6338142,19.4798272 75.8199591,19.4798272 C76.8259441,19.4798272 78.4134436,20.2599646 78.4134436,22.075557" id="Fill-21" fill="#000000"></path>
                    <path d="M92.9680142,20.0288109 L87.6586211,28.874758 C87.5331866,29.0849898 87.4458842,29.3185245 87.4458842,29.5718158 L87.4458842,34.8478747 C87.4458842,35.1234556 87.3219548,35.2075484 87.0931623,35.2075484 L84.8960509,35.2075484 C84.6652514,35.2075484 84.5408203,35.1234556 84.5408203,34.8478747 L84.5408203,29.5718158 C84.5408203,29.3185245 84.4575318,29.0849898 84.332599,28.874758 L79.063345,20.0288109 C79.019192,19.9447182 79.019192,19.8808888 79.063345,19.7947697 C79.1059927,19.73246 79.1672048,19.6894005 79.2710646,19.6894005 L81.7386128,19.6894005 C81.9699141,19.6894005 82.1781354,19.8170593 82.3241412,20.048061 L85.7118771,26.2577518 C85.7755979,26.3818646 85.8603916,26.445694 86.0043905,26.445694 C86.1082503,26.445694 86.1945492,26.3818646 86.2778378,26.2577518 L89.6846398,20.048061 C89.8311473,19.8170593 89.9771531,19.6894005 90.2059457,19.6894005 L92.7803641,19.6894005 C92.8430814,19.6894005 92.9258682,19.73246 92.9680142,19.7947697 C93.0106619,19.8808888 93.0106619,19.9447182 92.9680142,20.0288109" id="Fill-23" fill="#000000"></path>
                </g>
            </g>
        </g>
    </g>
</svg>